<svg xmlns="http://www.w3.org/2000/svg" viewBox="0 0 1000 520" width="100%" height="100%" style="background:#ffffff;font-family:-apple-system,BlinkMacSystemFont,'Segoe UI',Helvetica,Arial,sans-serif;">
  <!-- Header -->
  <text x="500" y="38" text-anchor="middle" fill="#18181b" font-size="20" font-weight="800">PRACTICAL THROUGHPUT USABILITY MATRIX</text>
  <text x="500" y="62" text-anchor="middle" fill="#71717a" font-size="13">Empirical Decode Throughput (Tokens / Second) Under Strict Hardware RAM Ceilings</text>

  <!-- Legend -->
  <g transform="translate(370, 80)">
    <rect x="0" y="0" width="14" height="14" rx="3" fill="#d3f9d8" stroke="#2f9e44" stroke-width="1.2"/>
    <text x="20" y="11" fill="#2f9e44" font-size="11" font-weight="700">USEFUL (&gt;= 1.0 tok/s)</text>
    <rect x="175" y="0" width="14" height="14" rx="3" fill="#ffe8cc" stroke="#e8590c" stroke-width="1.2"/>
    <text x="195" y="11" fill="#e8590c" font-size="11" font-weight="700">TOLERABLE (&gt;= 0.1 tok/s)</text>
    <rect x="360" y="0" width="14" height="14" rx="3" fill="#ffe3e3" stroke="#e03131" stroke-width="1.2"/>
    <text x="380" y="11" fill="#e03131" font-size="11" font-weight="700">IMPERCEPTIBLE (&lt; 0.1 tok/s)</text>
  </g>

  <!-- Table Container -->
  <g transform="translate(40, 110)">
    <!-- Column Headers -->
    <rect x="0" y="0" width="920" height="34" rx="6" fill="#f4f4f5" stroke="#18181b" stroke-width="1.8"/>
    <text x="110" y="22" fill="#18181b" font-size="12" font-weight="800">MODEL ARCHITECTURE</text>
    <text x="270" y="22" fill="#18181b" font-size="12" font-weight="800" text-anchor="middle">4 GB RAM</text>
    <text x="375" y="22" fill="#18181b" font-size="12" font-weight="800" text-anchor="middle">6 GB RAM</text>
    <text x="480" y="22" fill="#18181b" font-size="12" font-weight="800" text-anchor="middle">7.5 GB RAM</text>
    <text x="585" y="22" fill="#18181b" font-size="12" font-weight="800" text-anchor="middle">8 GB RAM</text>
    <text x="690" y="22" fill="#18181b" font-size="12" font-weight="800" text-anchor="middle">16 GB RAM</text>
    <text x="795" y="22" fill="#18181b" font-size="12" font-weight="800" text-anchor="middle">32 GB RAM</text>
    <text x="880" y="22" fill="#18181b" font-size="12" font-weight="800" text-anchor="middle">64 GB RAM</text>

    <!-- Row 1: OLMoE 1B-7B (Sparse MoE) -->
    <g transform="translate(0, 42)">
      <rect width="920" height="52" rx="4" fill="#ffffff" stroke="#d4d4d8" stroke-width="1.2"/>
      <text x="15" y="24" fill="#18181b" font-size="13" font-weight="800">OLMoE 1B-7B</text>
      <text x="15" y="42" fill="#71717a" font-size="10">Sparse MoE (64 exp, 8 active)</text>

      <g transform="translate(225, 8)"><rect width="90" height="36" rx="4" fill="#ebfbee" stroke="#2f9e44" stroke-width="1.2"/><text x="45" y="23" text-anchor="middle" fill="#2b8a3e" font-weight="700" font-size="12">15.2 tok/s</text></g>
      <g transform="translate(330, 8)"><rect width="90" height="36" rx="4" fill="#ebfbee" stroke="#2f9e44" stroke-width="1.2"/><text x="45" y="23" text-anchor="middle" fill="#2b8a3e" font-weight="700" font-size="12">15.2 tok/s</text></g>
      <g transform="translate(435, 8)"><rect width="90" height="36" rx="4" fill="#ebfbee" stroke="#2f9e44" stroke-width="1.2"/><text x="45" y="23" text-anchor="middle" fill="#2b8a3e" font-weight="700" font-size="12">15.2 tok/s</text></g>
      <g transform="translate(540, 8)"><rect width="90" height="36" rx="4" fill="#ebfbee" stroke="#2f9e44" stroke-width="1.2"/><text x="45" y="23" text-anchor="middle" fill="#2b8a3e" font-weight="700" font-size="12">15.2 tok/s</text></g>
      <g transform="translate(645, 8)"><rect width="90" height="36" rx="4" fill="#d3f9d8" stroke="#2f9e44" stroke-width="1.5"/><text x="45" y="23" text-anchor="middle" fill="#2b8a3e" font-weight="800" font-size="12">22.4 tok/s</text></g>
      <g transform="translate(750, 8)"><rect width="90" height="36" rx="4" fill="#b2f2bb" stroke="#2b8a3e" stroke-width="1.8"/><text x="45" y="23" text-anchor="middle" fill="#237032" font-weight="800" font-size="12">31.8 tok/s</text></g>
      <g transform="translate(845, 8)"><rect width="70" height="36" rx="4" fill="#b2f2bb" stroke="#2b8a3e" stroke-width="1.8"/><text x="35" y="23" text-anchor="middle" fill="#237032" font-weight="800" font-size="12">31.8</text></g>
    </g>

    <!-- Row 2: Qwen2.5 1.5B -->
    <g transform="translate(0, 102)">
      <rect width="920" height="52" rx="4" fill="#ffffff" stroke="#d4d4d8" stroke-width="1.2"/>
      <text x="15" y="24" fill="#18181b" font-size="13" font-weight="800">Qwen2.5 1.5B</text>
      <text x="15" y="42" fill="#71717a" font-size="10">Dense Small (0.9 GB Q4_K_M)</text>

      <g transform="translate(225, 8)"><rect width="90" height="36" rx="4" fill="#d3f9d8" stroke="#2f9e44" stroke-width="1.2"/><text x="45" y="23" text-anchor="middle" fill="#2b8a3e" font-weight="700" font-size="12">28.4 tok/s</text></g>
      <g transform="translate(330, 8)"><rect width="90" height="36" rx="4" fill="#b2f2bb" stroke="#2b8a3e" stroke-width="1.5"/><text x="45" y="23" text-anchor="middle" fill="#237032" font-weight="800" font-size="12">34.2 tok/s</text></g>
      <g transform="translate(435, 8)"><rect width="90" height="36" rx="4" fill="#b2f2bb" stroke="#2b8a3e" stroke-width="1.8"/><text x="45" y="23" text-anchor="middle" fill="#237032" font-weight="800" font-size="12">35.1 tok/s</text></g>
      <g transform="translate(540, 8)"><rect width="90" height="36" rx="4" fill="#b2f2bb" stroke="#2b8a3e" stroke-width="1.8"/><text x="45" y="23" text-anchor="middle" fill="#237032" font-weight="800" font-size="12">35.1 tok/s</text></g>
      <g transform="translate(645, 8)"><rect width="90" height="36" rx="4" fill="#b2f2bb" stroke="#2b8a3e" stroke-width="1.8"/><text x="45" y="23" text-anchor="middle" fill="#237032" font-weight="800" font-size="12">35.1 tok/s</text></g>
      <g transform="translate(750, 8)"><rect width="90" height="36" rx="4" fill="#b2f2bb" stroke="#2b8a3e" stroke-width="1.8"/><text x="45" y="23" text-anchor="middle" fill="#237032" font-weight="800" font-size="12">35.1 tok/s</text></g>
      <g transform="translate(845, 8)"><rect width="70" height="36" rx="4" fill="#b2f2bb" stroke="#2b8a3e" stroke-width="1.8"/><text x="35" y="23" text-anchor="middle" fill="#237032" font-weight="800" font-size="12">35.1</text></g>
    </g>

    <!-- Row 3: Qwen2.5 7B -->
    <g transform="translate(0, 162)">
      <rect width="920" height="52" rx="4" fill="#ffffff" stroke="#d4d4d8" stroke-width="1.2"/>
      <text x="15" y="24" fill="#18181b" font-size="13" font-weight="800">Qwen2.5 7B</text>
      <text x="15" y="42" fill="#71717a" font-size="10">Dense Medium (4.4 GB Q4_K_M)</text>

      <g transform="translate(225, 8)"><rect width="90" height="36" rx="4" fill="#ebfbee" stroke="#2f9e44" stroke-width="1.2"/><text x="45" y="23" text-anchor="middle" fill="#2b8a3e" font-weight="700" font-size="12">1.12 tok/s</text></g>
      <g transform="translate(330, 8)"><rect width="90" height="36" rx="4" fill="#ebfbee" stroke="#2f9e44" stroke-width="1.2"/><text x="45" y="23" text-anchor="middle" fill="#2b8a3e" font-weight="700" font-size="12">3.45 tok/s</text></g>
      <g transform="translate(435, 8)"><rect width="90" height="36" rx="4" fill="#d3f9d8" stroke="#2f9e44" stroke-width="1.2"/><text x="45" y="23" text-anchor="middle" fill="#2b8a3e" font-weight="700" font-size="12">4.82 tok/s</text></g>
      <g transform="translate(540, 8)"><rect width="90" height="36" rx="4" fill="#d3f9d8" stroke="#2f9e44" stroke-width="1.5"/><text x="45" y="23" text-anchor="middle" fill="#2b8a3e" font-weight="800" font-size="12">8.10 tok/s</text></g>
      <g transform="translate(645, 8)"><rect width="90" height="36" rx="4" fill="#b2f2bb" stroke="#2b8a3e" stroke-width="1.8"/><text x="45" y="23" text-anchor="middle" fill="#237032" font-weight="800" font-size="12">14.8 tok/s</text></g>
      <g transform="translate(750, 8)"><rect width="90" height="36" rx="4" fill="#b2f2bb" stroke="#2b8a3e" stroke-width="1.8"/><text x="45" y="23" text-anchor="middle" fill="#237032" font-weight="800" font-size="12">14.8 tok/s</text></g>
      <g transform="translate(845, 8)"><rect width="70" height="36" rx="4" fill="#b2f2bb" stroke="#2b8a3e" stroke-width="1.8"/><text x="35" y="23" text-anchor="middle" fill="#237032" font-weight="800" font-size="12">14.8</text></g>
    </g>

    <!-- Row 4: Qwen2.5 14B -->
    <g transform="translate(0, 222)">
      <rect width="920" height="52" rx="4" fill="#ffffff" stroke="#d4d4d8" stroke-width="1.2"/>
      <text x="15" y="24" fill="#18181b" font-size="13" font-weight="800">Qwen2.5 14B</text>
      <text x="15" y="42" fill="#71717a" font-size="10">Dense Large (8.5 GB Q4_K_M)</text>

      <g transform="translate(225, 8)"><rect width="90" height="36" rx="4" fill="#fff4e6" stroke="#e8590c" stroke-width="1.2"/><text x="45" y="23" text-anchor="middle" fill="#d9480f" font-weight="700" font-size="12">0.18 tok/s</text></g>
      <g transform="translate(330, 8)"><rect width="90" height="36" rx="4" fill="#fff4e6" stroke="#e8590c" stroke-width="1.2"/><text x="45" y="23" text-anchor="middle" fill="#d9480f" font-weight="700" font-size="12">0.42 tok/s</text></g>
      <g transform="translate(435, 8)"><rect width="90" height="36" rx="4" fill="#ebfbee" stroke="#2f9e44" stroke-width="1.2"/><text x="45" y="23" text-anchor="middle" fill="#2b8a3e" font-weight="700" font-size="12">1.15 tok/s</text></g>
      <g transform="translate(540, 8)"><rect width="90" height="36" rx="4" fill="#ebfbee" stroke="#2f9e44" stroke-width="1.2"/><text x="45" y="23" text-anchor="middle" fill="#2b8a3e" font-weight="700" font-size="12">1.30 tok/s</text></g>
      <g transform="translate(645, 8)"><rect width="90" height="36" rx="4" fill="#d3f9d8" stroke="#2f9e44" stroke-width="1.5"/><text x="45" y="23" text-anchor="middle" fill="#2b8a3e" font-weight="800" font-size="12">7.20 tok/s</text></g>
      <g transform="translate(750, 8)"><rect width="90" height="36" rx="4" fill="#d3f9d8" stroke="#2f9e44" stroke-width="1.5"/><text x="45" y="23" text-anchor="middle" fill="#2b8a3e" font-weight="800" font-size="12">7.20 tok/s</text></g>
      <g transform="translate(845, 8)"><rect width="70" height="36" rx="4" fill="#d3f9d8" stroke="#2f9e44" stroke-width="1.5"/><text x="35" y="23" text-anchor="middle" fill="#2b8a3e" font-weight="800" font-size="12">7.20</text></g>
    </g>

    <!-- Row 5: Llama-3.1 70B -->
    <g transform="translate(0, 282)">
      <rect width="920" height="52" rx="4" fill="#ffffff" stroke="#d4d4d8" stroke-width="1.2"/>
      <text x="15" y="24" fill="#18181b" font-size="13" font-weight="800">Llama-3.1 70B</text>
      <text x="15" y="42" fill="#71717a" font-size="10">Dense Ultra-Large (40 GB Q4_K_M)</text>

      <g transform="translate(225, 8)"><rect width="90" height="36" rx="4" fill="#fff5f5" stroke="#e03131" stroke-width="1.2"/><text x="45" y="23" text-anchor="middle" fill="#c92a2a" font-weight="700" font-size="11.5">0.034 tok/s</text></g>
      <g transform="translate(330, 8)"><rect width="90" height="36" rx="4" fill="#fff5f5" stroke="#e03131" stroke-width="1.2"/><text x="45" y="23" text-anchor="middle" fill="#c92a2a" font-weight="700" font-size="11.5">0.045 tok/s</text></g>
      <g transform="translate(435, 8)"><rect width="90" height="36" rx="4" fill="#fff5f5" stroke="#e03131" stroke-width="1.2"/><text x="45" y="23" text-anchor="middle" fill="#c92a2a" font-weight="700" font-size="11.5">0.058 tok/s</text></g>
      <g transform="translate(540, 8)"><rect width="90" height="36" rx="4" fill="#fff5f5" stroke="#e03131" stroke-width="1.2"/><text x="45" y="23" text-anchor="middle" fill="#c92a2a" font-weight="700" font-size="11.5">0.062 tok/s</text></g>
      <g transform="translate(645, 8)"><rect width="90" height="36" rx="4" fill="#fff5f5" stroke="#e03131" stroke-width="1.2"/><text x="45" y="23" text-anchor="middle" fill="#c92a2a" font-weight="700" font-size="11.5">0.082 tok/s</text></g>
      <g transform="translate(750, 8)"><rect width="90" height="36" rx="4" fill="#fff4e6" stroke="#e8590c" stroke-width="1.2"/><text x="45" y="23" text-anchor="middle" fill="#d9480f" font-weight="700" font-size="11.5">0.105 tok/s</text></g>
      <g transform="translate(845, 8)"><rect width="70" height="36" rx="4" fill="#ebfbee" stroke="#2f9e44" stroke-width="1.2"/><text x="35" y="23" text-anchor="middle" fill="#2b8a3e" font-weight="700" font-size="11.5">2.10</text></g>
    </g>
  </g>
</svg>